<svg xmlns="http://www.w3.org/2000/svg" xmlns:xlink="http://www.w3.org/1999/xlink" width="40" zoomAndPan="magnify" viewBox="0 0 30 30.000001" height="40" preserveAspectRatio="xMidYMid meet" version="1.0"><defs><g/><clipPath id="2a217b91c1"><path d="M 0.808594 0.328125 L 29.117188 0.328125 L 29.117188 28.632812 L 0.808594 28.632812 Z M 0.808594 0.328125 " clip-rule="nonzero"/></clipPath><clipPath id="8b92bc18d3"><path d="M 0.289062 1 L 3 1 L 3 4 L 0.289062 4 Z M 0.289062 1 " clip-rule="nonzero"/></clipPath><clipPath id="50ddf72207"><path d="M 15 1 L 17.941406 1 L 17.941406 4 L 15 4 Z M 15 1 " clip-rule="nonzero"/></clipPath><clipPath id="23c7a7bc63"><rect x="0" width="18" y="0" height="7"/></clipPath><clipPath id="7dbfa2efa3"><path d="M 8.078125 7.230469 L 14 7.230469 L 14 20 L 8.078125 20 Z M 8.078125 7.230469 " clip-rule="nonzero"/></clipPath><clipPath id="5b5923c918"><path d="M 13 8 L 21.871094 8 L 21.871094 18 L 13 18 Z M 13 8 " clip-rule="nonzero"/></clipPath><clipPath id="2931a3b22b"><path d="M 11 20 L 12 20 L 12 21.746094 L 11 21.746094 Z M 11 20 " clip-rule="nonzero"/></clipPath><clipPath id="a038f543a8"><path d="M 10 20 L 11 20 L 11 21.746094 L 10 21.746094 Z M 10 20 " clip-rule="nonzero"/></clipPath><clipPath id="0d23b9e44f"><path d="M 9 21 L 11 21 L 11 21.746094 L 9 21.746094 Z M 9 21 " clip-rule="nonzero"/></clipPath><clipPath id="0415d9f705"><path d="M 0.59375 4 L 3 4 L 3 7 L 0.59375 7 Z M 0.59375 4 " clip-rule="nonzero"/></clipPath><clipPath id="e6c916a166"><path d="M 17 4 L 19.40625 4 L 19.40625 7 L 17 7 Z M 17 4 " clip-rule="nonzero"/></clipPath><clipPath id="28305cc8b7"><rect x="0" width="20" y="0" height="8"/></clipPath></defs><g clip-path="url(#2a217b91c1)"><path fill="#000000" d="M 14.964844 0.328125 C 7.15625 0.328125 0.808594 6.671875 0.808594 14.480469 C 0.808594 22.289062 7.15625 28.632812 14.964844 28.632812 C 22.773438 28.632812 29.117188 22.289062 29.117188 14.480469 C 29.117188 6.671875 22.773438 0.328125 14.964844 0.328125 Z M 14.964844 0.941406 C 22.449219 0.941406 28.5 6.996094 28.5 14.480469 C 28.5 21.964844 22.449219 28.015625 14.964844 28.015625 C 7.480469 28.015625 1.425781 21.964844 1.425781 14.480469 C 1.425781 6.996094 7.480469 0.941406 14.964844 0.941406 Z M 14.964844 0.941406 " fill-opacity="1" fill-rule="nonzero"/></g><g transform="matrix(1, 0, 0, 1, 6, 21)"><g clip-path="url(#23c7a7bc63)"><g clip-path="url(#8b92bc18d3)"><g fill="#000000" fill-opacity="1"><g transform="translate(0.83048, 2.436962)"><g><path d="M 0.328125 -0.203125 C 0.335938 -0.234375 0.347656 -0.257812 0.359375 -0.28125 C 0.378906 -0.3125 0.394531 -0.335938 0.40625 -0.359375 C 0.425781 -0.390625 0.445312 -0.421875 0.46875 -0.453125 C 0.5 -0.484375 0.535156 -0.519531 0.578125 -0.5625 C 0.609375 -0.613281 0.640625 -0.65625 0.671875 -0.6875 C 0.703125 -0.71875 0.726562 -0.742188 0.75 -0.765625 C 0.769531 -0.785156 0.789062 -0.800781 0.8125 -0.8125 C 0.832031 -0.832031 0.859375 -0.851562 0.890625 -0.875 C 1.003906 -0.945312 1.117188 -0.972656 1.234375 -0.953125 C 1.359375 -0.941406 1.476562 -0.890625 1.59375 -0.796875 C 1.707031 -0.703125 1.78125 -0.597656 1.8125 -0.484375 C 1.851562 -0.367188 1.851562 -0.242188 1.8125 -0.109375 C 1.8125 -0.109375 1.800781 -0.109375 1.78125 -0.109375 L 1.390625 -0.21875 C 1.367188 -0.226562 1.363281 -0.242188 1.375 -0.265625 C 1.382812 -0.304688 1.382812 -0.335938 1.375 -0.359375 C 1.363281 -0.390625 1.347656 -0.414062 1.328125 -0.4375 C 1.273438 -0.476562 1.21875 -0.488281 1.15625 -0.46875 C 1.132812 -0.457031 1.117188 -0.445312 1.109375 -0.4375 C 1.109375 -0.425781 1.097656 -0.410156 1.078125 -0.390625 C 1.066406 -0.378906 1.050781 -0.359375 1.03125 -0.328125 C 1.007812 -0.304688 0.984375 -0.273438 0.953125 -0.234375 C 0.910156 -0.191406 0.878906 -0.160156 0.859375 -0.140625 C 0.847656 -0.117188 0.832031 -0.0976562 0.8125 -0.078125 C 0.800781 -0.0664062 0.789062 -0.0507812 0.78125 -0.03125 C 0.769531 -0.0195312 0.765625 -0.015625 0.765625 -0.015625 C 0.753906 0.0546875 0.773438 0.113281 0.828125 0.15625 C 0.847656 0.175781 0.875 0.1875 0.90625 0.1875 C 0.9375 0.1875 0.976562 0.175781 1.03125 0.15625 C 1.039062 0.132812 1.046875 0.140625 1.046875 0.171875 L 1.234375 0.546875 C 1.242188 0.554688 1.242188 0.566406 1.234375 0.578125 C 1.117188 0.640625 1 0.660156 0.875 0.640625 C 0.757812 0.628906 0.644531 0.578125 0.53125 0.484375 C 0.414062 0.390625 0.335938 0.285156 0.296875 0.171875 C 0.265625 0.0546875 0.273438 -0.0664062 0.328125 -0.203125 Z M 0.328125 -0.203125 "/></g></g></g></g><g fill="#000000" fill-opacity="1"><g transform="translate(2.609178, 3.815137)"><g><path d="M 0.84375 0 C 0.882812 0.0195312 0.914062 0.0234375 0.9375 0.015625 C 0.96875 0.015625 1 0 1.03125 -0.03125 C 1.050781 -0.0390625 1.070312 -0.0625 1.09375 -0.09375 C 1.113281 -0.132812 1.144531 -0.191406 1.1875 -0.265625 C 1.195312 -0.296875 1.207031 -0.320312 1.21875 -0.34375 C 1.238281 -0.375 1.253906 -0.398438 1.265625 -0.421875 C 1.285156 -0.453125 1.296875 -0.472656 1.296875 -0.484375 C 1.304688 -0.492188 1.3125 -0.507812 1.3125 -0.53125 C 1.3125 -0.5625 1.304688 -0.585938 1.296875 -0.609375 C 1.285156 -0.640625 1.257812 -0.664062 1.21875 -0.6875 C 1.195312 -0.707031 1.164062 -0.710938 1.125 -0.703125 C 1.09375 -0.703125 1.066406 -0.691406 1.046875 -0.671875 C 1.023438 -0.660156 1.007812 -0.648438 1 -0.640625 C 1 -0.628906 0.988281 -0.609375 0.96875 -0.578125 C 0.957031 -0.554688 0.941406 -0.53125 0.921875 -0.5 C 0.910156 -0.476562 0.898438 -0.453125 0.890625 -0.421875 C 0.847656 -0.347656 0.816406 -0.289062 0.796875 -0.25 C 0.773438 -0.21875 0.765625 -0.191406 0.765625 -0.171875 C 0.753906 -0.128906 0.757812 -0.09375 0.78125 -0.0625 C 0.800781 -0.0390625 0.820312 -0.0195312 0.84375 0 Z M 0.625 0.390625 C 0.5625 0.347656 0.503906 0.300781 0.453125 0.25 C 0.410156 0.207031 0.375 0.160156 0.34375 0.109375 C 0.320312 0.0546875 0.300781 0 0.28125 -0.0625 C 0.269531 -0.125 0.273438 -0.191406 0.296875 -0.265625 C 0.296875 -0.304688 0.296875 -0.34375 0.296875 -0.375 C 0.304688 -0.40625 0.316406 -0.429688 0.328125 -0.453125 C 0.347656 -0.484375 0.367188 -0.515625 0.390625 -0.546875 C 0.410156 -0.585938 0.429688 -0.628906 0.453125 -0.671875 C 0.472656 -0.710938 0.492188 -0.75 0.515625 -0.78125 C 0.535156 -0.820312 0.550781 -0.851562 0.5625 -0.875 C 0.582031 -0.90625 0.601562 -0.929688 0.625 -0.953125 C 0.65625 -0.984375 0.679688 -1.003906 0.703125 -1.015625 C 0.753906 -1.054688 0.8125 -1.085938 0.875 -1.109375 C 0.9375 -1.140625 1 -1.160156 1.0625 -1.171875 C 1.125 -1.179688 1.179688 -1.175781 1.234375 -1.15625 C 1.296875 -1.132812 1.359375 -1.101562 1.421875 -1.0625 C 1.484375 -1.03125 1.539062 -0.992188 1.59375 -0.953125 C 1.65625 -0.910156 1.695312 -0.859375 1.71875 -0.796875 C 1.75 -0.742188 1.769531 -0.679688 1.78125 -0.609375 C 1.789062 -0.546875 1.789062 -0.484375 1.78125 -0.421875 C 1.78125 -0.398438 1.773438 -0.367188 1.765625 -0.328125 C 1.753906 -0.296875 1.742188 -0.265625 1.734375 -0.234375 C 1.722656 -0.210938 1.707031 -0.179688 1.6875 -0.140625 C 1.664062 -0.109375 1.644531 -0.0703125 1.625 -0.03125 C 1.601562 0.0078125 1.582031 0.046875 1.5625 0.078125 C 1.539062 0.117188 1.519531 0.148438 1.5 0.171875 C 1.476562 0.203125 1.457031 0.226562 1.4375 0.25 C 1.414062 0.269531 1.394531 0.296875 1.375 0.328125 C 1.3125 0.378906 1.25 0.414062 1.1875 0.4375 C 1.132812 0.457031 1.078125 0.46875 1.015625 0.46875 C 0.953125 0.476562 0.882812 0.472656 0.8125 0.453125 C 0.75 0.441406 0.6875 0.421875 0.625 0.390625 Z M 0.625 0.390625 "/></g></g></g><g fill="#000000" fill-opacity="1"><g transform="translate(4.738853, 4.879537)"><g><path d="M 0.59375 -1.46875 C 0.601562 -1.488281 0.613281 -1.5 0.625 -1.5 L 1.046875 -1.359375 C 1.054688 -1.347656 1.054688 -1.332031 1.046875 -1.3125 L 0.703125 -0.25 C 0.703125 -0.238281 0.707031 -0.234375 0.71875 -0.234375 L 1.328125 -0.03125 C 1.347656 -0.03125 1.351562 -0.0234375 1.34375 -0.015625 L 1.234375 0.359375 C 1.222656 0.378906 1.207031 0.390625 1.1875 0.390625 L 0.125 0.03125 C 0.113281 0.03125 0.113281 0.0195312 0.125 0 Z M 0.59375 -1.46875 "/></g></g></g><g fill="#000000" fill-opacity="1"><g transform="translate(6.873118, 5.486295)"><g><path d="M 0.78125 -0.3125 C 0.820312 -0.3125 0.859375 -0.316406 0.890625 -0.328125 C 0.921875 -0.347656 0.941406 -0.375 0.953125 -0.40625 C 0.960938 -0.425781 0.96875 -0.457031 0.96875 -0.5 C 0.976562 -0.539062 0.988281 -0.601562 1 -0.6875 C 1.007812 -0.726562 1.015625 -0.765625 1.015625 -0.796875 C 1.015625 -0.828125 1.015625 -0.851562 1.015625 -0.875 C 1.023438 -0.90625 1.03125 -0.925781 1.03125 -0.9375 C 1.03125 -0.945312 1.023438 -0.957031 1.015625 -0.96875 C 1.015625 -1 1 -1.023438 0.96875 -1.046875 C 0.945312 -1.066406 0.914062 -1.078125 0.875 -1.078125 C 0.84375 -1.085938 0.8125 -1.082031 0.78125 -1.0625 C 0.757812 -1.050781 0.738281 -1.03125 0.71875 -1 C 0.707031 -1 0.703125 -0.992188 0.703125 -0.984375 C 0.703125 -0.972656 0.695312 -0.953125 0.6875 -0.921875 C 0.6875 -0.898438 0.6875 -0.875 0.6875 -0.84375 C 0.6875 -0.8125 0.679688 -0.773438 0.671875 -0.734375 C 0.660156 -0.648438 0.648438 -0.585938 0.640625 -0.546875 C 0.640625 -0.503906 0.644531 -0.46875 0.65625 -0.4375 C 0.664062 -0.40625 0.679688 -0.378906 0.703125 -0.359375 C 0.722656 -0.335938 0.75 -0.320312 0.78125 -0.3125 Z M 0.734375 0.125 C 0.660156 0.113281 0.59375 0.09375 0.53125 0.0625 C 0.46875 0.0390625 0.410156 0.0078125 0.359375 -0.03125 C 0.316406 -0.0703125 0.273438 -0.117188 0.234375 -0.171875 C 0.203125 -0.222656 0.179688 -0.285156 0.171875 -0.359375 C 0.160156 -0.390625 0.148438 -0.421875 0.140625 -0.453125 C 0.140625 -0.484375 0.140625 -0.515625 0.140625 -0.546875 C 0.148438 -0.578125 0.15625 -0.613281 0.15625 -0.65625 C 0.164062 -0.695312 0.171875 -0.738281 0.171875 -0.78125 C 0.179688 -0.832031 0.1875 -0.878906 0.1875 -0.921875 C 0.195312 -0.960938 0.203125 -0.992188 0.203125 -1.015625 C 0.203125 -1.046875 0.207031 -1.078125 0.21875 -1.109375 C 0.238281 -1.140625 0.257812 -1.171875 0.28125 -1.203125 C 0.300781 -1.265625 0.332031 -1.316406 0.375 -1.359375 C 0.425781 -1.410156 0.476562 -1.445312 0.53125 -1.46875 C 0.59375 -1.5 0.65625 -1.515625 0.71875 -1.515625 C 0.789062 -1.523438 0.863281 -1.523438 0.9375 -1.515625 C 1.007812 -1.503906 1.078125 -1.488281 1.140625 -1.46875 C 1.203125 -1.445312 1.253906 -1.414062 1.296875 -1.375 C 1.335938 -1.34375 1.375 -1.296875 1.40625 -1.234375 C 1.445312 -1.179688 1.476562 -1.117188 1.5 -1.046875 C 1.5 -1.015625 1.5 -0.984375 1.5 -0.953125 C 1.5 -0.921875 1.5 -0.890625 1.5 -0.859375 C 1.507812 -0.835938 1.507812 -0.804688 1.5 -0.765625 C 1.5 -0.722656 1.492188 -0.675781 1.484375 -0.625 C 1.484375 -0.582031 1.476562 -0.539062 1.46875 -0.5 C 1.46875 -0.457031 1.460938 -0.421875 1.453125 -0.390625 C 1.441406 -0.359375 1.429688 -0.328125 1.421875 -0.296875 C 1.410156 -0.265625 1.398438 -0.234375 1.390625 -0.203125 C 1.359375 -0.140625 1.316406 -0.0859375 1.265625 -0.046875 C 1.222656 -0.00390625 1.175781 0.03125 1.125 0.0625 C 1.070312 0.09375 1.007812 0.113281 0.9375 0.125 C 0.875 0.132812 0.804688 0.132812 0.734375 0.125 Z M 0.734375 0.125 "/></g></g></g><g fill="#000000" fill-opacity="1"><g transform="translate(9.250817, 5.686917)"><g><path d="M 0.6875 -0.984375 C 0.738281 -0.984375 0.773438 -1 0.796875 -1.03125 C 0.828125 -1.0625 0.84375 -1.097656 0.84375 -1.140625 C 0.832031 -1.179688 0.8125 -1.207031 0.78125 -1.21875 C 0.757812 -1.238281 0.722656 -1.25 0.671875 -1.25 L 0.515625 -1.234375 C 0.503906 -1.234375 0.5 -1.234375 0.5 -1.234375 L 0.515625 -0.984375 C 0.515625 -0.972656 0.519531 -0.96875 0.53125 -0.96875 Z M 0.9375 -0.078125 C 0.914062 -0.0664062 0.90625 -0.0703125 0.90625 -0.09375 L 0.640625 -0.578125 L 0.5625 -0.578125 C 0.550781 -0.578125 0.546875 -0.570312 0.546875 -0.5625 L 0.59375 -0.078125 C 0.59375 -0.0546875 0.585938 -0.046875 0.578125 -0.046875 L 0.125 -0.015625 C 0.113281 -0.015625 0.109375 -0.0234375 0.109375 -0.046875 L -0.015625 -1.59375 C -0.015625 -1.613281 -0.0078125 -1.625 0 -1.625 L 0.671875 -1.671875 C 0.773438 -1.679688 0.863281 -1.675781 0.9375 -1.65625 C 1.019531 -1.632812 1.085938 -1.597656 1.140625 -1.546875 C 1.203125 -1.503906 1.25 -1.453125 1.28125 -1.390625 C 1.3125 -1.328125 1.332031 -1.253906 1.34375 -1.171875 C 1.34375 -1.078125 1.328125 -0.988281 1.296875 -0.90625 C 1.265625 -0.820312 1.207031 -0.753906 1.125 -0.703125 L 1.4375 -0.140625 C 1.445312 -0.128906 1.445312 -0.117188 1.4375 -0.109375 C 1.4375 -0.109375 1.429688 -0.109375 1.421875 -0.109375 Z M 0.9375 -0.078125 "/></g></g></g><g fill="#000000" fill-opacity="1"><g transform="translate(11.64341, 5.416801)"><g><path d="M 0.75 -0.875 L 0.515625 -1.25 L 0.5 -1.25 L 0.515625 -0.8125 Z M 0.125 -1.671875 C 0.113281 -1.691406 0.113281 -1.707031 0.125 -1.71875 L 0.578125 -1.84375 C 0.597656 -1.851562 0.613281 -1.847656 0.625 -1.828125 L 1.578125 -0.5 C 1.585938 -0.476562 1.585938 -0.460938 1.578125 -0.453125 L 1.109375 -0.328125 C 1.097656 -0.316406 1.082031 -0.320312 1.0625 -0.34375 L 0.96875 -0.515625 L 0.5 -0.390625 L 0.515625 -0.1875 C 0.515625 -0.164062 0.507812 -0.148438 0.5 -0.140625 L 0.03125 -0.015625 C 0.0078125 -0.00390625 0 -0.0078125 0 -0.03125 Z M 0.125 -1.671875 "/></g></g></g><g fill="#000000" fill-opacity="1"><g transform="translate(14.08886, 4.59689)"><g><path d="M 0.3125 -0.6875 C 0.320312 -0.675781 0.328125 -0.671875 0.328125 -0.671875 L 0.390625 -0.703125 C 0.441406 -0.734375 0.476562 -0.757812 0.5 -0.78125 C 0.519531 -0.8125 0.523438 -0.859375 0.515625 -0.921875 C 0.523438 -0.929688 0.523438 -0.941406 0.515625 -0.953125 C 0.503906 -0.960938 0.492188 -0.972656 0.484375 -0.984375 C 0.484375 -1.003906 0.476562 -1.023438 0.46875 -1.046875 C 0.457031 -1.078125 0.445312 -1.109375 0.4375 -1.140625 C 0.414062 -1.179688 0.394531 -1.207031 0.375 -1.21875 C 0.363281 -1.238281 0.351562 -1.253906 0.34375 -1.265625 C 0.332031 -1.285156 0.320312 -1.300781 0.3125 -1.3125 C 0.3125 -1.320312 0.300781 -1.332031 0.28125 -1.34375 C 0.257812 -1.375 0.226562 -1.390625 0.1875 -1.390625 C 0.144531 -1.390625 0.0976562 -1.375 0.046875 -1.34375 L -0.015625 -1.3125 C -0.015625 -1.3125 -0.015625 -1.304688 -0.015625 -1.296875 Z M -0.65625 -1.4375 C -0.664062 -1.457031 -0.664062 -1.472656 -0.65625 -1.484375 L -0.09375 -1.78125 C 0.0390625 -1.851562 0.164062 -1.882812 0.28125 -1.875 C 0.40625 -1.863281 0.519531 -1.816406 0.625 -1.734375 C 0.644531 -1.703125 0.664062 -1.675781 0.6875 -1.65625 C 0.707031 -1.644531 0.722656 -1.617188 0.734375 -1.578125 C 0.753906 -1.546875 0.773438 -1.515625 0.796875 -1.484375 C 0.816406 -1.460938 0.84375 -1.425781 0.875 -1.375 C 0.894531 -1.332031 0.910156 -1.289062 0.921875 -1.25 C 0.941406 -1.207031 0.957031 -1.171875 0.96875 -1.140625 C 0.988281 -1.109375 1 -1.078125 1 -1.046875 C 1.007812 -1.023438 1.019531 -1 1.03125 -0.96875 C 1.050781 -0.832031 1.03125 -0.710938 0.96875 -0.609375 C 0.90625 -0.515625 0.804688 -0.429688 0.671875 -0.359375 L 0.109375 -0.0625 C 0.0976562 -0.0507812 0.0859375 -0.0546875 0.078125 -0.078125 Z M -0.65625 -1.4375 "/></g></g></g><g clip-path="url(#50ddf72207)"><g fill="#000000" fill-opacity="1"><g transform="translate(16.164255, 3.386784)"><g><path d="M 0.296875 -0.78125 C 0.328125 -0.800781 0.347656 -0.828125 0.359375 -0.859375 C 0.367188 -0.898438 0.367188 -0.929688 0.359375 -0.953125 C 0.359375 -0.984375 0.34375 -1.015625 0.3125 -1.046875 C 0.289062 -1.078125 0.253906 -1.125 0.203125 -1.1875 C 0.171875 -1.21875 0.144531 -1.242188 0.125 -1.265625 C 0.101562 -1.296875 0.0820312 -1.320312 0.0625 -1.34375 C 0.0507812 -1.363281 0.0390625 -1.378906 0.03125 -1.390625 C 0.0195312 -1.398438 0.0078125 -1.40625 0 -1.40625 C -0.03125 -1.425781 -0.0625 -1.429688 -0.09375 -1.421875 C -0.125 -1.421875 -0.15625 -1.410156 -0.1875 -1.390625 C -0.207031 -1.367188 -0.222656 -1.34375 -0.234375 -1.3125 C -0.242188 -1.28125 -0.242188 -1.25 -0.234375 -1.21875 C -0.234375 -1.207031 -0.226562 -1.195312 -0.21875 -1.1875 C -0.207031 -1.175781 -0.191406 -1.160156 -0.171875 -1.140625 C -0.160156 -1.117188 -0.144531 -1.09375 -0.125 -1.0625 C -0.101562 -1.039062 -0.078125 -1.015625 -0.046875 -0.984375 C 0.00390625 -0.921875 0.0390625 -0.875 0.0625 -0.84375 C 0.09375 -0.8125 0.113281 -0.785156 0.125 -0.765625 C 0.15625 -0.753906 0.1875 -0.75 0.21875 -0.75 C 0.25 -0.75 0.273438 -0.757812 0.296875 -0.78125 Z M 0.578125 -0.4375 C 0.523438 -0.382812 0.46875 -0.347656 0.40625 -0.328125 C 0.351562 -0.304688 0.296875 -0.289062 0.234375 -0.28125 C 0.171875 -0.269531 0.109375 -0.269531 0.046875 -0.28125 C -0.0117188 -0.289062 -0.078125 -0.320312 -0.140625 -0.375 C -0.171875 -0.382812 -0.195312 -0.394531 -0.21875 -0.40625 C -0.25 -0.425781 -0.273438 -0.445312 -0.296875 -0.46875 C -0.316406 -0.5 -0.335938 -0.53125 -0.359375 -0.5625 C -0.390625 -0.59375 -0.414062 -0.625 -0.4375 -0.65625 C -0.476562 -0.695312 -0.507812 -0.734375 -0.53125 -0.765625 C -0.5625 -0.796875 -0.582031 -0.820312 -0.59375 -0.84375 C -0.613281 -0.875 -0.628906 -0.90625 -0.640625 -0.9375 C -0.660156 -0.96875 -0.675781 -1 -0.6875 -1.03125 C -0.707031 -1.09375 -0.71875 -1.15625 -0.71875 -1.21875 C -0.71875 -1.28125 -0.707031 -1.34375 -0.6875 -1.40625 C -0.664062 -1.46875 -0.632812 -1.519531 -0.59375 -1.5625 C -0.5625 -1.613281 -0.519531 -1.664062 -0.46875 -1.71875 C -0.40625 -1.757812 -0.34375 -1.796875 -0.28125 -1.828125 C -0.21875 -1.867188 -0.15625 -1.890625 -0.09375 -1.890625 C -0.0390625 -1.898438 0.015625 -1.898438 0.078125 -1.890625 C 0.148438 -1.878906 0.210938 -1.851562 0.265625 -1.8125 C 0.296875 -1.800781 0.320312 -1.785156 0.34375 -1.765625 C 0.375 -1.742188 0.394531 -1.71875 0.40625 -1.6875 C 0.425781 -1.664062 0.445312 -1.640625 0.46875 -1.609375 C 0.5 -1.578125 0.535156 -1.539062 0.578125 -1.5 C 0.597656 -1.46875 0.617188 -1.4375 0.640625 -1.40625 C 0.671875 -1.375 0.695312 -1.34375 0.71875 -1.3125 C 0.738281 -1.289062 0.753906 -1.265625 0.765625 -1.234375 C 0.785156 -1.210938 0.800781 -1.1875 0.8125 -1.15625 C 0.84375 -1.082031 0.851562 -1.015625 0.84375 -0.953125 C 0.84375 -0.890625 0.832031 -0.828125 0.8125 -0.765625 C 0.800781 -0.710938 0.773438 -0.65625 0.734375 -0.59375 C 0.691406 -0.53125 0.640625 -0.476562 0.578125 -0.4375 Z M 0.578125 -0.4375 "/></g></g></g></g></g></g><g clip-path="url(#7dbfa2efa3)"><path fill="#000000" d="M 11.886719 13.191406 C 11.914062 13.273438 11.960938 13.355469 12.027344 13.441406 C 12.101562 13.542969 12.179688 13.652344 12.265625 13.777344 C 12.429688 14.015625 12.644531 14.265625 12.914062 14.523438 C 12.953125 14.566406 13.074219 14.667969 13.277344 14.839844 C 13.421875 14.957031 13.492188 15.082031 13.328125 15.214844 C 13.15625 15.359375 12.875 15.351562 12.65625 15.285156 C 12.421875 15.21875 12.203125 15.105469 12 14.953125 C 11.992188 14.945312 11.980469 14.949219 11.972656 14.953125 C 11.96875 14.960938 11.96875 14.964844 11.972656 14.972656 C 12.085938 15.242188 12.230469 15.539062 12.40625 15.867188 C 12.433594 15.921875 12.429688 16.03125 12.371094 16.085938 C 12.300781 16.144531 12.21875 16.164062 12.117188 16.148438 C 11.800781 16.097656 11.527344 15.960938 11.300781 15.746094 C 11.296875 15.738281 11.289062 15.738281 11.28125 15.746094 C 11.28125 15.746094 11.277344 15.75 11.277344 15.753906 C 11.28125 16.496094 11.335938 17.25 11.449219 18.023438 C 11.453125 18.058594 11.46875 18.089844 11.488281 18.117188 C 11.542969 18.175781 11.609375 18.238281 11.699219 18.304688 C 12.066406 18.570312 12.269531 18.71875 12.304688 18.75 C 12.339844 18.78125 12.363281 18.816406 12.363281 18.855469 C 12.390625 19.183594 11.640625 18.902344 11.4375 18.835938 C 11.242188 18.773438 11.308594 19.03125 11.320312 19.125 C 11.324219 19.175781 11.292969 19.222656 11.246094 19.238281 C 11.097656 19.292969 10.941406 19.289062 10.789062 19.226562 C 10.597656 19.148438 10.558594 18.785156 10.324219 18.800781 C 10.085938 18.8125 9.785156 18.921875 9.507812 18.957031 C 9.425781 18.96875 9.351562 18.964844 9.292969 18.945312 C 9.242188 18.933594 9.210938 18.882812 9.21875 18.832031 C 9.222656 18.789062 9.246094 18.75 9.289062 18.71875 C 9.761719 18.378906 10.039062 18.171875 10.121094 18.101562 C 10.15625 18.074219 10.179688 18.015625 10.183594 17.933594 C 10.195312 17.726562 10.214844 17.5 10.230469 17.253906 C 10.273438 16.75 10.285156 16.25 10.273438 15.753906 C 10.273438 15.746094 10.265625 15.738281 10.253906 15.738281 C 10.253906 15.738281 10.25 15.742188 10.246094 15.742188 C 10.023438 15.964844 9.753906 16.101562 9.4375 16.152344 C 9.304688 16.175781 9.140625 16.121094 9.125 15.964844 C 9.121094 15.917969 9.148438 15.855469 9.199219 15.773438 C 9.34375 15.53125 9.472656 15.257812 9.578125 14.953125 C 9.582031 14.949219 9.578125 14.941406 9.574219 14.941406 C 9.570312 14.9375 9.566406 14.941406 9.5625 14.941406 C 9.277344 15.171875 8.855469 15.347656 8.5 15.335938 C 8.328125 15.328125 8.0625 15.191406 8.15625 14.96875 C 8.160156 14.957031 8.167969 14.949219 8.175781 14.941406 C 8.648438 14.527344 9.070312 14.113281 9.433594 13.597656 C 9.503906 13.5 9.710938 13.3125 9.761719 13.125 C 9.761719 13.121094 9.757812 13.117188 9.753906 13.113281 C 9.753906 13.113281 9.75 13.113281 9.746094 13.113281 C 9.386719 13.378906 8.984375 13.589844 8.574219 13.699219 C 8.390625 13.746094 7.980469 13.691406 8.105469 13.390625 C 8.117188 13.371094 8.152344 13.335938 8.210938 13.285156 C 8.613281 12.945312 8.953125 12.5625 9.226562 12.132812 C 9.320312 11.984375 9.398438 11.828125 9.457031 11.664062 C 9.484375 11.597656 9.5 11.535156 9.503906 11.480469 C 9.507812 11.472656 9.5 11.464844 9.492188 11.464844 C 9.488281 11.464844 9.488281 11.464844 9.484375 11.464844 C 9.367188 11.496094 9.25 11.511719 9.132812 11.507812 C 8.976562 11.507812 8.722656 11.449219 8.761719 11.265625 C 8.773438 11.226562 8.820312 11.167969 8.910156 11.09375 C 9.394531 10.699219 9.746094 10.207031 9.96875 9.617188 C 9.96875 9.609375 9.964844 9.601562 9.957031 9.597656 C 9.953125 9.597656 9.949219 9.597656 9.945312 9.597656 C 9.804688 9.667969 9.648438 9.695312 9.480469 9.683594 C 9.371094 9.675781 9.246094 9.613281 9.253906 9.496094 C 9.253906 9.464844 9.28125 9.425781 9.332031 9.375 C 9.851562 8.867188 10.261719 8.164062 10.53125 7.488281 C 10.589844 7.339844 10.703125 7.144531 10.894531 7.273438 C 10.925781 7.292969 10.953125 7.332031 10.980469 7.398438 C 11.125 7.707031 11.195312 7.882812 11.335938 8.132812 C 11.539062 8.484375 11.722656 8.769531 11.886719 8.992188 C 11.96875 9.101562 12.089844 9.234375 12.246094 9.390625 C 12.347656 9.488281 12.285156 9.628906 12.15625 9.664062 C 11.96875 9.714844 11.777344 9.691406 11.585938 9.597656 C 11.578125 9.59375 11.574219 9.59375 11.574219 9.597656 C 11.570312 9.601562 11.570312 9.605469 11.570312 9.605469 C 11.808594 10.21875 12.191406 10.738281 12.71875 11.160156 C 12.792969 11.222656 12.820312 11.289062 12.796875 11.367188 C 12.792969 11.382812 12.785156 11.394531 12.773438 11.40625 C 12.59375 11.570312 12.308594 11.527344 12.0625 11.457031 C 12.054688 11.453125 12.046875 11.460938 12.042969 11.46875 C 12.042969 11.472656 12.042969 11.472656 12.042969 11.472656 C 12.046875 11.609375 12.09375 11.757812 12.1875 11.925781 C 12.511719 12.488281 12.917969 12.96875 13.410156 13.363281 C 13.449219 13.394531 13.464844 13.4375 13.464844 13.503906 C 13.460938 13.65625 13.292969 13.722656 13.15625 13.722656 C 13.023438 13.722656 12.902344 13.703125 12.796875 13.660156 C 12.464844 13.527344 12.289062 13.453125 12.265625 13.433594 C 12.105469 13.316406 11.984375 13.230469 11.902344 13.175781 C 11.898438 13.171875 11.890625 13.175781 11.886719 13.179688 C 11.886719 13.183594 11.886719 13.1875 11.886719 13.191406 Z M 11.886719 13.191406 " fill-opacity="1" fill-rule="nonzero"/></g><g clip-path="url(#5b5923c918)"><path fill="#000000" d="M 16.558594 12.785156 C 16.558594 12.773438 16.546875 12.761719 16.535156 12.761719 C 16.535156 12.761719 16.53125 12.761719 16.53125 12.761719 C 15.4375 12.84375 14.617188 12.90625 14.066406 12.941406 C 13.96875 12.949219 13.886719 12.917969 13.816406 12.847656 C 13.773438 12.804688 13.746094 12.722656 13.738281 12.597656 C 13.710938 12.09375 13.652344 11.347656 13.558594 10.355469 C 13.546875 10.199219 13.554688 10.089844 13.582031 10.027344 C 13.679688 9.820312 13.929688 9.859375 14.121094 9.847656 C 15.046875 9.800781 15.855469 9.75 16.550781 9.699219 C 16.5625 9.699219 16.570312 9.6875 16.570312 9.675781 C 16.574219 9.484375 16.578125 9.320312 16.578125 9.183594 C 16.582031 9 16.742188 8.917969 16.925781 8.90625 C 17.0625 8.898438 17.230469 8.886719 17.433594 8.863281 C 17.628906 8.84375 17.785156 8.886719 17.796875 9.101562 C 17.804688 9.246094 17.804688 9.410156 17.789062 9.589844 C 17.789062 9.601562 17.796875 9.613281 17.808594 9.613281 C 17.8125 9.613281 17.8125 9.613281 17.8125 9.613281 C 18.5 9.5625 19.320312 9.5 20.273438 9.433594 C 20.429688 9.421875 20.523438 9.476562 20.636719 9.59375 C 21.015625 9.972656 21.375 10.324219 21.714844 10.644531 C 21.835938 10.757812 21.898438 10.84375 21.90625 10.890625 C 21.929688 11.078125 21.886719 11.132812 21.742188 11.269531 C 21.421875 11.570312 21.003906 11.96875 20.492188 12.464844 C 20.449219 12.507812 20.34375 12.53125 20.269531 12.53125 C 19.40625 12.566406 18.582031 12.613281 17.792969 12.671875 C 17.777344 12.675781 17.761719 12.691406 17.761719 12.707031 C 17.75 13.976562 17.738281 15.46875 17.726562 17.1875 C 17.726562 17.304688 17.679688 17.347656 17.570312 17.359375 C 17.546875 17.359375 17.527344 17.34375 17.523438 17.320312 C 17.503906 17.210938 17.507812 17.125 17.433594 17.101562 C 17.398438 17.089844 17.359375 17.113281 17.347656 17.144531 C 17.347656 17.152344 17.347656 17.160156 17.347656 17.167969 L 17.347656 17.3125 C 17.347656 17.351562 17.316406 17.378906 17.28125 17.378906 L 17.15625 17.378906 C 17.117188 17.378906 17.085938 17.347656 17.085938 17.308594 L 17.085938 16.773438 C 17.085938 16.742188 17.070312 16.710938 17.046875 16.6875 C 16.972656 16.613281 16.925781 16.519531 16.910156 16.410156 C 16.90625 16.402344 16.902344 16.394531 16.894531 16.394531 L 16.875 16.394531 C 16.867188 16.394531 16.859375 16.402344 16.859375 16.410156 L 16.859375 17.277344 C 16.859375 17.339844 16.808594 17.394531 16.742188 17.394531 L 16.699219 17.394531 C 16.621094 17.394531 16.558594 17.328125 16.558594 17.253906 Z M 14.15625 12.570312 C 16.03125 12.425781 18.042969 12.292969 20.191406 12.171875 C 20.222656 12.171875 20.253906 12.15625 20.277344 12.136719 L 21.472656 11.019531 C 21.492188 11 21.496094 10.972656 21.480469 10.953125 C 21.445312 10.914062 21.417969 10.882812 21.390625 10.859375 C 21.160156 10.644531 20.832031 10.324219 20.402344 9.894531 C 20.339844 9.832031 20.277344 9.804688 20.21875 9.808594 C 19.769531 9.839844 18.609375 9.921875 16.75 10.050781 C 15.511719 10.136719 14.589844 10.191406 13.984375 10.214844 C 13.949219 10.21875 13.925781 10.246094 13.925781 10.28125 C 13.925781 10.28125 13.925781 10.28125 13.925781 10.285156 L 14.105469 12.527344 C 14.105469 12.550781 14.128906 12.574219 14.15625 12.570312 Z M 14.15625 12.570312 " fill-opacity="1" fill-rule="nonzero"/></g><path fill="#000000" d="M 15.523438 16.046875 L 15.652344 16.039062 C 15.722656 16.03125 15.785156 16.085938 15.789062 16.15625 L 15.789062 16.175781 C 15.796875 16.242188 15.742188 16.304688 15.675781 16.308594 L 15.542969 16.320312 C 15.472656 16.324219 15.410156 16.273438 15.40625 16.203125 L 15.40625 16.183594 C 15.398438 16.113281 15.453125 16.054688 15.523438 16.046875 Z M 15.523438 16.046875 " fill-opacity="1" fill-rule="nonzero"/><path fill="#000000" d="M 14.8125 16.128906 L 14.9375 16.109375 C 15.007812 16.097656 15.074219 16.144531 15.085938 16.214844 L 15.089844 16.234375 C 15.101562 16.304688 15.050781 16.371094 14.980469 16.378906 L 14.855469 16.402344 C 14.785156 16.414062 14.71875 16.363281 14.707031 16.292969 L 14.703125 16.277344 C 14.691406 16.207031 14.742188 16.140625 14.8125 16.128906 Z M 14.8125 16.128906 " fill-opacity="1" fill-rule="nonzero"/><path fill="#000000" d="M 14.117188 16.257812 L 14.242188 16.234375 C 14.3125 16.21875 14.382812 16.265625 14.398438 16.335938 L 14.402344 16.355469 C 14.417969 16.429688 14.371094 16.5 14.300781 16.511719 L 14.175781 16.539062 C 14.105469 16.554688 14.035156 16.507812 14.019531 16.4375 L 14.015625 16.417969 C 14 16.34375 14.046875 16.273438 14.117188 16.257812 Z M 14.117188 16.257812 " fill-opacity="1" fill-rule="nonzero"/><path fill="#000000" d="M 13.722656 16.523438 C 13.765625 16.613281 13.726562 16.6875 13.613281 16.742188 C 13.496094 16.800781 13.414062 16.785156 13.371094 16.695312 C 13.328125 16.605469 13.363281 16.53125 13.480469 16.476562 C 13.597656 16.417969 13.679688 16.433594 13.722656 16.523438 Z M 13.722656 16.523438 " fill-opacity="1" fill-rule="nonzero"/><path fill="#000000" d="M 13.117188 16.867188 C 13.195312 16.933594 13.195312 17.015625 13.113281 17.113281 C 13.035156 17.207031 12.953125 17.21875 12.875 17.148438 C 12.792969 17.082031 12.792969 17 12.875 16.90625 C 12.957031 16.8125 13.035156 16.796875 13.117188 16.867188 Z M 13.117188 16.867188 " fill-opacity="1" fill-rule="nonzero"/><path fill="#000000" d="M 13.113281 17.5 C 13.199219 17.589844 13.207031 17.667969 13.132812 17.742188 C 13.058594 17.8125 12.980469 17.804688 12.890625 17.71875 C 12.804688 17.628906 12.800781 17.550781 12.871094 17.476562 C 12.945312 17.402344 13.027344 17.410156 13.113281 17.5 Z M 13.113281 17.5 " fill-opacity="1" fill-rule="nonzero"/><path fill="#000000" d="M 13.636719 17.84375 C 13.761719 17.894531 13.808594 17.964844 13.769531 18.0625 C 13.734375 18.15625 13.652344 18.179688 13.527344 18.132812 C 13.398438 18.085938 13.355469 18.011719 13.390625 17.917969 C 13.425781 17.820312 13.507812 17.796875 13.636719 17.84375 Z M 13.636719 17.84375 " fill-opacity="1" fill-rule="nonzero"/><path fill="#000000" d="M 14.320312 18.082031 C 14.453125 18.117188 14.507812 18.1875 14.480469 18.28125 C 14.453125 18.378906 14.375 18.410156 14.238281 18.371094 C 14.105469 18.335938 14.050781 18.269531 14.078125 18.171875 C 14.105469 18.074219 14.183594 18.042969 14.320312 18.082031 Z M 14.320312 18.082031 " fill-opacity="1" fill-rule="nonzero"/><path fill="#000000" d="M 15.035156 18.25 C 15.175781 18.277344 15.234375 18.34375 15.214844 18.441406 C 15.195312 18.542969 15.117188 18.582031 14.976562 18.554688 C 14.835938 18.527344 14.773438 18.464844 14.792969 18.363281 C 14.8125 18.261719 14.894531 18.222656 15.035156 18.25 Z M 15.035156 18.25 " fill-opacity="1" fill-rule="nonzero"/><path fill="#000000" d="M 15.710938 18.390625 L 15.867188 18.414062 C 15.941406 18.425781 15.988281 18.496094 15.976562 18.566406 L 15.976562 18.585938 C 15.964844 18.65625 15.898438 18.707031 15.824219 18.695312 L 15.667969 18.671875 C 15.59375 18.660156 15.542969 18.59375 15.554688 18.519531 L 15.558594 18.503906 C 15.570312 18.429688 15.636719 18.378906 15.710938 18.390625 Z M 15.710938 18.390625 " fill-opacity="1" fill-rule="nonzero"/><path fill="#000000" d="M 16.59375 18.539062 C 16.742188 18.5625 16.804688 18.628906 16.785156 18.730469 C 16.769531 18.832031 16.6875 18.871094 16.539062 18.84375 C 16.394531 18.820312 16.332031 18.753906 16.347656 18.652344 C 16.367188 18.550781 16.449219 18.511719 16.59375 18.539062 Z M 16.59375 18.539062 " fill-opacity="1" fill-rule="nonzero"/><path fill="#000000" d="M 17.308594 18.683594 L 17.488281 18.714844 C 17.5625 18.726562 17.609375 18.796875 17.597656 18.867188 L 17.59375 18.882812 C 17.582031 18.953125 17.511719 19 17.441406 18.988281 L 17.261719 18.957031 C 17.1875 18.945312 17.140625 18.878906 17.152344 18.808594 L 17.15625 18.789062 C 17.167969 18.71875 17.238281 18.671875 17.308594 18.683594 Z M 17.308594 18.683594 " fill-opacity="1" fill-rule="nonzero"/><path fill="#000000" d="M 18.226562 18.910156 C 18.363281 18.96875 18.410156 19.046875 18.371094 19.144531 C 18.332031 19.246094 18.242188 19.265625 18.105469 19.210938 C 17.964844 19.15625 17.917969 19.078125 17.957031 18.976562 C 18 18.878906 18.085938 18.855469 18.226562 18.910156 Z M 18.226562 18.910156 " fill-opacity="1" fill-rule="nonzero"/><path fill="#000000" d="M 18.027344 19.515625 L 18.179688 19.441406 C 18.257812 19.40625 18.347656 19.441406 18.386719 19.519531 L 18.394531 19.535156 C 18.429688 19.613281 18.394531 19.707031 18.316406 19.742188 L 18.164062 19.8125 C 18.085938 19.847656 17.992188 19.816406 17.957031 19.738281 L 17.949219 19.722656 C 17.914062 19.644531 17.949219 19.550781 18.027344 19.515625 Z M 18.027344 19.515625 " fill-opacity="1" fill-rule="nonzero"/><path fill="#000000" d="M 17.167969 19.765625 L 17.382812 19.71875 C 17.464844 19.699219 17.546875 19.753906 17.566406 19.835938 L 17.570312 19.851562 C 17.585938 19.933594 17.535156 20.015625 17.453125 20.035156 L 17.234375 20.082031 C 17.152344 20.097656 17.070312 20.046875 17.054688 19.964844 L 17.050781 19.945312 C 17.03125 19.863281 17.085938 19.78125 17.167969 19.765625 Z M 17.167969 19.765625 " fill-opacity="1" fill-rule="nonzero"/><path fill="#000000" d="M 16.242188 19.945312 L 16.46875 19.910156 C 16.554688 19.894531 16.636719 19.953125 16.648438 20.039062 L 16.652344 20.054688 C 16.667969 20.140625 16.609375 20.222656 16.523438 20.238281 L 16.296875 20.273438 C 16.210938 20.289062 16.128906 20.230469 16.117188 20.144531 L 16.113281 20.128906 C 16.097656 20.042969 16.15625 19.960938 16.242188 19.945312 Z M 16.242188 19.945312 " fill-opacity="1" fill-rule="nonzero"/><path fill="#000000" d="M 15.289062 20.121094 L 15.535156 20.085938 C 15.617188 20.074219 15.695312 20.128906 15.707031 20.210938 L 15.707031 20.230469 C 15.71875 20.3125 15.664062 20.386719 15.582031 20.398438 L 15.335938 20.4375 C 15.253906 20.449219 15.175781 20.390625 15.164062 20.308594 L 15.164062 20.292969 C 15.148438 20.210938 15.207031 20.132812 15.289062 20.121094 Z M 15.289062 20.121094 " fill-opacity="1" fill-rule="nonzero"/><path fill="#000000" d="M 14.339844 20.261719 L 14.582031 20.230469 C 14.664062 20.222656 14.742188 20.28125 14.75 20.367188 L 14.753906 20.382812 C 14.761719 20.46875 14.703125 20.542969 14.617188 20.554688 L 14.375 20.582031 C 14.292969 20.59375 14.214844 20.53125 14.207031 20.449219 L 14.203125 20.429688 C 14.195312 20.347656 14.253906 20.269531 14.339844 20.261719 Z M 14.339844 20.261719 " fill-opacity="1" fill-rule="nonzero"/><path fill="#000000" d="M 13.378906 20.398438 L 13.609375 20.371094 C 13.691406 20.359375 13.769531 20.421875 13.78125 20.503906 L 13.785156 20.523438 C 13.792969 20.609375 13.734375 20.6875 13.648438 20.699219 L 13.417969 20.726562 C 13.332031 20.738281 13.253906 20.675781 13.246094 20.59375 L 13.242188 20.574219 C 13.230469 20.488281 13.292969 20.410156 13.378906 20.398438 Z M 13.378906 20.398438 " fill-opacity="1" fill-rule="nonzero"/><path fill="#000000" d="M 12.414062 20.535156 L 12.660156 20.507812 C 12.746094 20.496094 12.820312 20.554688 12.832031 20.640625 L 12.832031 20.65625 C 12.84375 20.738281 12.785156 20.816406 12.699219 20.824219 L 12.453125 20.855469 C 12.371094 20.863281 12.292969 20.804688 12.285156 20.722656 L 12.28125 20.707031 C 12.273438 20.621094 12.332031 20.546875 12.414062 20.535156 Z M 12.414062 20.535156 " fill-opacity="1" fill-rule="nonzero"/><g clip-path="url(#2931a3b22b)"><path fill="#000000" d="M 11.445312 20.707031 L 11.679688 20.664062 C 11.765625 20.648438 11.847656 20.703125 11.863281 20.789062 L 11.863281 20.804688 C 11.878906 20.890625 11.824219 20.972656 11.738281 20.988281 L 11.503906 21.03125 C 11.417969 21.046875 11.335938 20.988281 11.320312 20.90625 L 11.320312 20.886719 C 11.304688 20.800781 11.359375 20.722656 11.445312 20.707031 Z M 11.445312 20.707031 " fill-opacity="1" fill-rule="nonzero"/></g><g clip-path="url(#a038f543a8)"><path fill="#000000" d="M 10.484375 20.980469 L 10.703125 20.90625 C 10.785156 20.878906 10.875 20.921875 10.902344 21.003906 L 10.910156 21.019531 C 10.9375 21.101562 10.894531 21.1875 10.8125 21.21875 L 10.589844 21.292969 C 10.507812 21.320312 10.417969 21.277344 10.390625 21.195312 L 10.386719 21.179688 C 10.359375 21.097656 10.402344 21.011719 10.484375 20.980469 Z M 10.484375 20.980469 " fill-opacity="1" fill-rule="nonzero"/></g><g clip-path="url(#0d23b9e44f)"><path fill="#000000" d="M 9.578125 21.496094 L 9.769531 21.347656 C 9.835938 21.296875 9.9375 21.308594 9.992188 21.378906 L 10 21.390625 C 10.054688 21.457031 10.042969 21.558594 9.972656 21.613281 L 9.785156 21.757812 C 9.714844 21.8125 9.613281 21.800781 9.558594 21.730469 L 9.550781 21.71875 C 9.496094 21.648438 9.511719 21.550781 9.578125 21.496094 Z M 9.578125 21.496094 " fill-opacity="1" fill-rule="nonzero"/></g><g transform="matrix(1, 0, 0, 1, 5, 1)"><g clip-path="url(#28305cc8b7)"><g clip-path="url(#0415d9f705)"><g fill="#000000" fill-opacity="1"><g transform="translate(1.795469, 6.606277)"><g><path d="M 0.46875 -0.5 C 0.425781 -0.445312 0.375 -0.398438 0.3125 -0.359375 C 0.257812 -0.328125 0.207031 -0.296875 0.15625 -0.265625 C 0.113281 -0.234375 0.0625 -0.207031 0 -0.1875 C -0.0507812 -0.175781 -0.0859375 -0.164062 -0.109375 -0.15625 C -0.128906 -0.15625 -0.140625 -0.15625 -0.140625 -0.15625 C -0.148438 -0.164062 -0.148438 -0.175781 -0.140625 -0.1875 L -0.203125 -0.53125 C -0.203125 -0.550781 -0.195312 -0.554688 -0.1875 -0.546875 C -0.132812 -0.554688 -0.0703125 -0.578125 0 -0.609375 C 0.0703125 -0.640625 0.128906 -0.6875 0.171875 -0.75 C 0.203125 -0.78125 0.21875 -0.8125 0.21875 -0.84375 C 0.226562 -0.882812 0.222656 -0.910156 0.203125 -0.921875 C 0.191406 -0.929688 0.171875 -0.9375 0.140625 -0.9375 C 0.117188 -0.9375 0.0859375 -0.914062 0.046875 -0.875 L -0.015625 -0.828125 C -0.148438 -0.710938 -0.269531 -0.644531 -0.375 -0.625 C -0.488281 -0.613281 -0.609375 -0.660156 -0.734375 -0.765625 C -0.773438 -0.804688 -0.8125 -0.851562 -0.84375 -0.90625 C -0.875 -0.96875 -0.882812 -1.03125 -0.875 -1.09375 C -0.875 -1.164062 -0.859375 -1.234375 -0.828125 -1.296875 C -0.796875 -1.359375 -0.753906 -1.425781 -0.703125 -1.5 C -0.628906 -1.582031 -0.550781 -1.644531 -0.46875 -1.6875 C -0.382812 -1.738281 -0.296875 -1.78125 -0.203125 -1.8125 C -0.191406 -1.820312 -0.1875 -1.816406 -0.1875 -1.796875 L -0.09375 -1.46875 C -0.09375 -1.445312 -0.0976562 -1.429688 -0.109375 -1.421875 C -0.160156 -1.398438 -0.207031 -1.378906 -0.25 -1.359375 C -0.300781 -1.335938 -0.347656 -1.300781 -0.390625 -1.25 C -0.421875 -1.21875 -0.4375 -1.1875 -0.4375 -1.15625 C -0.4375 -1.132812 -0.429688 -1.117188 -0.421875 -1.109375 C -0.398438 -1.085938 -0.378906 -1.082031 -0.359375 -1.09375 C -0.335938 -1.101562 -0.3125 -1.128906 -0.28125 -1.171875 L -0.203125 -1.21875 C -0.078125 -1.34375 0.0390625 -1.410156 0.15625 -1.421875 C 0.28125 -1.441406 0.398438 -1.398438 0.515625 -1.296875 C 0.566406 -1.253906 0.601562 -1.195312 0.625 -1.125 C 0.65625 -1.0625 0.664062 -0.992188 0.65625 -0.921875 C 0.65625 -0.859375 0.640625 -0.789062 0.609375 -0.71875 C 0.585938 -0.644531 0.539062 -0.570312 0.46875 -0.5 Z M 0.46875 -0.5 "/></g></g></g></g><g fill="#000000" fill-opacity="1"><g transform="translate(3.115208, 5.188672)"><g><path d="M -0.875 -1.1875 C -0.875 -1.1875 -0.867188 -1.191406 -0.859375 -1.203125 L -0.546875 -1.46875 C -0.535156 -1.476562 -0.53125 -1.484375 -0.53125 -1.484375 L 0.40625 -0.375 C 0.414062 -0.363281 0.414062 -0.351562 0.40625 -0.34375 L 0.09375 -0.078125 C 0.0820312 -0.0664062 0.0703125 -0.0664062 0.0625 -0.078125 Z M -0.875 -1.1875 "/></g></g></g><g fill="#000000" fill-opacity="1"><g transform="translate(4.074803, 4.398845)"><g><path d="M 0.265625 -0.65625 C 0.273438 -0.644531 0.28125 -0.640625 0.28125 -0.640625 L 0.328125 -0.671875 C 0.367188 -0.691406 0.398438 -0.71875 0.421875 -0.75 C 0.441406 -0.789062 0.445312 -0.832031 0.4375 -0.875 C 0.425781 -0.882812 0.421875 -0.894531 0.421875 -0.90625 C 0.421875 -0.925781 0.414062 -0.941406 0.40625 -0.953125 C 0.394531 -0.960938 0.382812 -0.976562 0.375 -1 C 0.363281 -1.019531 0.347656 -1.046875 0.328125 -1.078125 C 0.316406 -1.109375 0.300781 -1.128906 0.28125 -1.140625 C 0.269531 -1.160156 0.257812 -1.175781 0.25 -1.1875 C 0.238281 -1.207031 0.226562 -1.222656 0.21875 -1.234375 C 0.207031 -1.242188 0.203125 -1.253906 0.203125 -1.265625 C 0.171875 -1.285156 0.132812 -1.289062 0.09375 -1.28125 C 0.0507812 -1.28125 0.0078125 -1.269531 -0.03125 -1.25 L -0.078125 -1.21875 C -0.078125 -1.21875 -0.0703125 -1.210938 -0.0625 -1.203125 Z M -0.6875 -1.296875 C -0.6875 -1.304688 -0.675781 -1.316406 -0.65625 -1.328125 L -0.15625 -1.640625 C -0.0390625 -1.710938 0.0664062 -1.75 0.171875 -1.75 C 0.285156 -1.757812 0.390625 -1.71875 0.484375 -1.625 C 0.503906 -1.625 0.523438 -1.609375 0.546875 -1.578125 C 0.566406 -1.554688 0.585938 -1.535156 0.609375 -1.515625 C 0.628906 -1.492188 0.648438 -1.460938 0.671875 -1.421875 C 0.691406 -1.390625 0.710938 -1.359375 0.734375 -1.328125 C 0.765625 -1.285156 0.789062 -1.242188 0.8125 -1.203125 C 0.832031 -1.171875 0.84375 -1.140625 0.84375 -1.109375 C 0.851562 -1.085938 0.863281 -1.0625 0.875 -1.03125 C 0.882812 -1.007812 0.894531 -0.984375 0.90625 -0.953125 C 0.925781 -0.828125 0.910156 -0.71875 0.859375 -0.625 C 0.804688 -0.53125 0.722656 -0.445312 0.609375 -0.375 L 0.109375 -0.0625 C 0.0859375 -0.0507812 0.0703125 -0.0507812 0.0625 -0.0625 Z M -0.6875 -1.296875 "/></g></g></g><g fill="#000000" fill-opacity="1"><g transform="translate(5.786589, 3.431407)"><g><path d="M -0.421875 -1.40625 C -0.429688 -1.414062 -0.429688 -1.425781 -0.421875 -1.4375 L 0.5 -1.78125 C 0.519531 -1.789062 0.535156 -1.789062 0.546875 -1.78125 L 0.65625 -1.453125 C 0.664062 -1.441406 0.660156 -1.429688 0.640625 -1.421875 L 0.140625 -1.234375 C 0.128906 -1.222656 0.125 -1.210938 0.125 -1.203125 L 0.171875 -1.078125 C 0.179688 -1.066406 0.191406 -1.066406 0.203125 -1.078125 L 0.609375 -1.234375 C 0.628906 -1.234375 0.640625 -1.226562 0.640625 -1.21875 L 0.765625 -0.921875 C 0.765625 -0.898438 0.753906 -0.890625 0.734375 -0.890625 L 0.328125 -0.734375 C 0.316406 -0.722656 0.316406 -0.710938 0.328125 -0.703125 L 0.375 -0.546875 C 0.375 -0.535156 0.378906 -0.535156 0.390625 -0.546875 L 0.890625 -0.734375 C 0.910156 -0.742188 0.925781 -0.75 0.9375 -0.75 L 1.0625 -0.421875 C 1.0625 -0.410156 1.050781 -0.398438 1.03125 -0.390625 L 0.109375 -0.046875 C 0.0976562 -0.0351562 0.09375 -0.0351562 0.09375 -0.046875 Z M -0.421875 -1.40625 "/></g></g></g><g fill="#000000" fill-opacity="1"><g transform="translate(7.485891, 2.857475)"><g/></g></g><g fill="#000000" fill-opacity="1"><g transform="translate(8.580395, 2.625172)"><g><path d="M 0.65625 -0.421875 C 0.695312 -0.421875 0.726562 -0.429688 0.75 -0.453125 C 0.769531 -0.472656 0.785156 -0.5 0.796875 -0.53125 C 0.804688 -0.5625 0.804688 -0.59375 0.796875 -0.625 C 0.796875 -0.664062 0.796875 -0.726562 0.796875 -0.8125 C 0.785156 -0.84375 0.78125 -0.875 0.78125 -0.90625 C 0.78125 -0.9375 0.78125 -0.960938 0.78125 -0.984375 C 0.78125 -1.003906 0.78125 -1.019531 0.78125 -1.03125 C 0.78125 -1.050781 0.773438 -1.066406 0.765625 -1.078125 C 0.742188 -1.109375 0.722656 -1.128906 0.703125 -1.140625 C 0.679688 -1.148438 0.648438 -1.15625 0.609375 -1.15625 C 0.578125 -1.15625 0.546875 -1.144531 0.515625 -1.125 C 0.492188 -1.101562 0.484375 -1.078125 0.484375 -1.046875 C 0.484375 -1.035156 0.484375 -1.019531 0.484375 -1 C 0.484375 -0.988281 0.476562 -0.972656 0.46875 -0.953125 C 0.46875 -0.929688 0.46875 -0.90625 0.46875 -0.875 C 0.46875 -0.84375 0.472656 -0.8125 0.484375 -0.78125 C 0.484375 -0.695312 0.488281 -0.632812 0.5 -0.59375 C 0.507812 -0.5625 0.515625 -0.53125 0.515625 -0.5 C 0.523438 -0.46875 0.539062 -0.445312 0.5625 -0.4375 C 0.59375 -0.425781 0.625 -0.421875 0.65625 -0.421875 Z M 1.15625 0.046875 C 1.144531 0.0546875 1.132812 0.0546875 1.125 0.046875 L 0.984375 -0.09375 C 0.890625 -0.0507812 0.789062 -0.0234375 0.6875 -0.015625 C 0.625 -0.015625 0.5625 -0.0195312 0.5 -0.03125 C 0.4375 -0.0390625 0.378906 -0.0546875 0.328125 -0.078125 C 0.285156 -0.109375 0.242188 -0.144531 0.203125 -0.1875 C 0.160156 -0.238281 0.125 -0.296875 0.09375 -0.359375 C 0.0820312 -0.378906 0.0703125 -0.398438 0.0625 -0.421875 C 0.0507812 -0.453125 0.046875 -0.484375 0.046875 -0.515625 C 0.046875 -0.546875 0.0390625 -0.578125 0.03125 -0.609375 C 0.03125 -0.648438 0.03125 -0.695312 0.03125 -0.75 C 0.0195312 -0.789062 0.015625 -0.828125 0.015625 -0.859375 C 0.015625 -0.898438 0.015625 -0.9375 0.015625 -0.96875 C 0.015625 -1 0.015625 -1.023438 0.015625 -1.046875 C 0.0234375 -1.078125 0.0351562 -1.113281 0.046875 -1.15625 C 0.0664062 -1.21875 0.09375 -1.269531 0.125 -1.3125 C 0.15625 -1.363281 0.191406 -1.40625 0.234375 -1.4375 C 0.285156 -1.476562 0.335938 -1.507812 0.390625 -1.53125 C 0.453125 -1.550781 0.515625 -1.5625 0.578125 -1.5625 C 0.648438 -1.570312 0.71875 -1.566406 0.78125 -1.546875 C 0.84375 -1.535156 0.898438 -1.515625 0.953125 -1.484375 C 1.003906 -1.460938 1.050781 -1.425781 1.09375 -1.375 C 1.132812 -1.332031 1.164062 -1.285156 1.1875 -1.234375 C 1.195312 -1.203125 1.207031 -1.171875 1.21875 -1.140625 C 1.226562 -1.117188 1.234375 -1.09375 1.234375 -1.0625 C 1.242188 -1.03125 1.25 -0.992188 1.25 -0.953125 C 1.25 -0.921875 1.253906 -0.882812 1.265625 -0.84375 C 1.265625 -0.789062 1.265625 -0.742188 1.265625 -0.703125 C 1.273438 -0.671875 1.273438 -0.640625 1.265625 -0.609375 C 1.265625 -0.578125 1.257812 -0.546875 1.25 -0.515625 C 1.25 -0.492188 1.242188 -0.46875 1.234375 -0.4375 L 1.421875 -0.25 C 1.429688 -0.238281 1.429688 -0.226562 1.421875 -0.21875 Z M 1.15625 0.046875 "/></g></g></g><g fill="#000000" fill-opacity="1"><g transform="translate(10.544005, 2.544605)"><g><path d="M 0.71875 0.125 C 0.625 0.113281 0.535156 0.0859375 0.453125 0.046875 C 0.378906 0.015625 0.320312 -0.03125 0.28125 -0.09375 C 0.238281 -0.15625 0.207031 -0.226562 0.1875 -0.3125 C 0.164062 -0.394531 0.160156 -0.488281 0.171875 -0.59375 L 0.28125 -1.4375 C 0.28125 -1.445312 0.285156 -1.453125 0.296875 -1.453125 L 0.71875 -1.40625 C 0.726562 -1.40625 0.734375 -1.398438 0.734375 -1.390625 L 0.609375 -0.5 C 0.609375 -0.445312 0.617188 -0.398438 0.640625 -0.359375 C 0.660156 -0.316406 0.695312 -0.289062 0.75 -0.28125 C 0.8125 -0.28125 0.859375 -0.296875 0.890625 -0.328125 C 0.921875 -0.359375 0.9375 -0.398438 0.9375 -0.453125 L 1.0625 -1.34375 C 1.0625 -1.351562 1.066406 -1.359375 1.078125 -1.359375 L 1.484375 -1.3125 C 1.492188 -1.300781 1.5 -1.289062 1.5 -1.28125 L 1.390625 -0.4375 C 1.378906 -0.332031 1.351562 -0.238281 1.3125 -0.15625 C 1.28125 -0.0820312 1.226562 -0.0234375 1.15625 0.015625 C 1.09375 0.0664062 1.023438 0.0976562 0.953125 0.109375 C 0.890625 0.128906 0.8125 0.132812 0.71875 0.125 Z M 0.71875 0.125 "/></g></g></g><g fill="#000000" fill-opacity="1"><g transform="translate(12.517782, 2.856395)"><g><path d="M 0.546875 -1.375 C 0.546875 -1.375 0.554688 -1.375 0.578125 -1.375 L 1.515625 -1.0625 C 1.535156 -1.0625 1.546875 -1.0625 1.546875 -1.0625 L 1.4375 -0.734375 C 1.4375 -0.722656 1.425781 -0.71875 1.40625 -0.71875 L 0.875 -0.890625 C 0.863281 -0.890625 0.851562 -0.882812 0.84375 -0.875 L 0.8125 -0.734375 C 0.800781 -0.722656 0.800781 -0.71875 0.8125 -0.71875 L 1.234375 -0.59375 C 1.253906 -0.582031 1.265625 -0.570312 1.265625 -0.5625 L 1.171875 -0.25 C 1.160156 -0.226562 1.144531 -0.222656 1.125 -0.234375 L 0.703125 -0.359375 C 0.691406 -0.359375 0.6875 -0.351562 0.6875 -0.34375 L 0.640625 -0.203125 C 0.628906 -0.191406 0.628906 -0.1875 0.640625 -0.1875 L 1.171875 -0.015625 C 1.191406 -0.015625 1.203125 -0.0078125 1.203125 0 L 1.09375 0.328125 C 1.09375 0.335938 1.082031 0.34375 1.0625 0.34375 L 0.125 0.03125 C 0.101562 0.03125 0.09375 0.0234375 0.09375 0.015625 Z M 0.546875 -1.375 "/></g></g></g><g fill="#000000" fill-opacity="1"><g transform="translate(14.199027, 3.442017)"><g><path d="M 0.578125 0.34375 C 0.523438 0.3125 0.472656 0.273438 0.421875 0.234375 C 0.367188 0.191406 0.320312 0.148438 0.28125 0.109375 C 0.238281 0.0664062 0.203125 0.0195312 0.171875 -0.03125 C 0.148438 -0.0820312 0.140625 -0.125 0.140625 -0.15625 C 0.128906 -0.15625 0.125 -0.15625 0.125 -0.15625 C 0.132812 -0.164062 0.144531 -0.175781 0.15625 -0.1875 L 0.46875 -0.3125 C 0.488281 -0.320312 0.5 -0.316406 0.5 -0.296875 C 0.519531 -0.253906 0.550781 -0.203125 0.59375 -0.140625 C 0.644531 -0.078125 0.703125 -0.03125 0.765625 0 C 0.804688 0.03125 0.84375 0.0390625 0.875 0.03125 C 0.914062 0.0195312 0.941406 0.00390625 0.953125 -0.015625 C 0.960938 -0.0234375 0.960938 -0.0390625 0.953125 -0.0625 C 0.941406 -0.0820312 0.914062 -0.109375 0.875 -0.140625 L 0.78125 -0.203125 C 0.65625 -0.304688 0.566406 -0.410156 0.515625 -0.515625 C 0.472656 -0.617188 0.492188 -0.738281 0.578125 -0.875 C 0.597656 -0.925781 0.632812 -0.972656 0.6875 -1.015625 C 0.75 -1.066406 0.8125 -1.097656 0.875 -1.109375 C 0.945312 -1.117188 1.019531 -1.117188 1.09375 -1.109375 C 1.164062 -1.097656 1.238281 -1.070312 1.3125 -1.03125 C 1.414062 -0.976562 1.5 -0.910156 1.5625 -0.828125 C 1.632812 -0.753906 1.691406 -0.679688 1.734375 -0.609375 C 1.734375 -0.585938 1.726562 -0.578125 1.71875 -0.578125 L 1.40625 -0.40625 C 1.394531 -0.40625 1.382812 -0.40625 1.375 -0.40625 C 1.34375 -0.46875 1.304688 -0.519531 1.265625 -0.5625 C 1.234375 -0.601562 1.191406 -0.640625 1.140625 -0.671875 C 1.097656 -0.691406 1.066406 -0.695312 1.046875 -0.6875 C 1.023438 -0.6875 1.007812 -0.675781 1 -0.65625 C 0.988281 -0.632812 0.984375 -0.613281 0.984375 -0.59375 C 0.992188 -0.570312 1.023438 -0.550781 1.078125 -0.53125 L 1.140625 -0.46875 C 1.285156 -0.363281 1.378906 -0.253906 1.421875 -0.140625 C 1.460938 -0.0351562 1.445312 0.0820312 1.375 0.21875 C 1.34375 0.28125 1.296875 0.328125 1.234375 0.359375 C 1.179688 0.398438 1.117188 0.425781 1.046875 0.4375 C 0.984375 0.445312 0.910156 0.445312 0.828125 0.4375 C 0.753906 0.425781 0.671875 0.394531 0.578125 0.34375 Z M 0.578125 0.34375 "/></g></g></g><g fill="#000000" fill-opacity="1"><g transform="translate(15.870749, 4.400314)"><g><path d="M 0.328125 0.265625 C 0.316406 0.253906 0.316406 0.242188 0.328125 0.234375 L 0.96875 -0.578125 C 0.976562 -0.585938 0.984375 -0.59375 0.984375 -0.59375 L 0.703125 -0.828125 C 0.691406 -0.828125 0.691406 -0.832031 0.703125 -0.84375 L 0.9375 -1.125 C 0.9375 -1.132812 0.941406 -1.140625 0.953125 -1.140625 L 1.875 -0.390625 C 1.882812 -0.378906 1.890625 -0.367188 1.890625 -0.359375 L 1.65625 -0.078125 C 1.644531 -0.0664062 1.632812 -0.0664062 1.625 -0.078125 L 1.359375 -0.296875 C 1.347656 -0.304688 1.335938 -0.304688 1.328125 -0.296875 L 0.6875 0.515625 C 0.675781 0.523438 0.664062 0.53125 0.65625 0.53125 Z M 0.328125 0.265625 "/></g></g></g><g clip-path="url(#e6c916a166)"><g fill="#000000" fill-opacity="1"><g transform="translate(17.274976, 5.586224)"><g><path d="M 0.40625 0.53125 C 0.363281 0.476562 0.328125 0.421875 0.296875 0.359375 C 0.273438 0.304688 0.25 0.253906 0.21875 0.203125 C 0.195312 0.148438 0.179688 0.09375 0.171875 0.03125 C 0.171875 -0.0195312 0.171875 -0.0625 0.171875 -0.09375 C 0.179688 -0.101562 0.191406 -0.113281 0.203125 -0.125 L 0.546875 -0.125 C 0.566406 -0.125 0.570312 -0.117188 0.5625 -0.109375 C 0.570312 -0.0546875 0.585938 0.00390625 0.609375 0.078125 C 0.628906 0.148438 0.660156 0.21875 0.703125 0.28125 C 0.734375 0.3125 0.765625 0.328125 0.796875 0.328125 C 0.835938 0.335938 0.867188 0.335938 0.890625 0.328125 C 0.898438 0.316406 0.90625 0.300781 0.90625 0.28125 C 0.914062 0.257812 0.898438 0.226562 0.859375 0.1875 L 0.796875 0.109375 C 0.722656 -0.0429688 0.679688 -0.175781 0.671875 -0.28125 C 0.671875 -0.394531 0.734375 -0.503906 0.859375 -0.609375 C 0.898438 -0.648438 0.953125 -0.679688 1.015625 -0.703125 C 1.078125 -0.734375 1.140625 -0.738281 1.203125 -0.71875 C 1.273438 -0.707031 1.34375 -0.679688 1.40625 -0.640625 C 1.46875 -0.597656 1.523438 -0.539062 1.578125 -0.46875 C 1.648438 -0.382812 1.707031 -0.296875 1.75 -0.203125 C 1.789062 -0.117188 1.816406 -0.0273438 1.828125 0.0625 C 1.816406 0.0703125 1.8125 0.078125 1.8125 0.078125 L 1.46875 0.125 C 1.445312 0.125 1.429688 0.117188 1.421875 0.109375 C 1.410156 0.046875 1.394531 -0.0078125 1.375 -0.0625 C 1.363281 -0.113281 1.335938 -0.164062 1.296875 -0.21875 C 1.265625 -0.25 1.238281 -0.265625 1.21875 -0.265625 C 1.195312 -0.273438 1.179688 -0.273438 1.171875 -0.265625 C 1.148438 -0.242188 1.140625 -0.222656 1.140625 -0.203125 C 1.140625 -0.179688 1.15625 -0.148438 1.1875 -0.109375 L 1.234375 -0.03125 C 1.335938 0.113281 1.382812 0.242188 1.375 0.359375 C 1.375 0.484375 1.316406 0.597656 1.203125 0.703125 C 1.148438 0.742188 1.085938 0.769531 1.015625 0.78125 C 0.953125 0.800781 0.882812 0.800781 0.8125 0.78125 C 0.75 0.769531 0.679688 0.742188 0.609375 0.703125 C 0.546875 0.660156 0.476562 0.601562 0.40625 0.53125 Z M 0.40625 0.53125 "/></g></g></g></g></g></g></svg>